<?xml version="1.0" encoding="UTF-8" standalone="no"?>
<!DOCTYPE svg PUBLIC "-//W3C//DTD SVG 1.1//EN"
        "http://www.w3.org/Graphics/SVG/1.1/DTD/svg11.dtd">
<!-- Generated by graphviz version 2.43.0 (0)
 -->
<!-- Title: %3 Pages: 1 -->
<svg width="494pt" height="162pt"
     viewBox="0.00 0.00 493.58 162.00" xmlns="http://www.w3.org/2000/svg">
    <g id="graph0" class="graph" transform="scale(1 1) rotate(0) translate(4 158)">
        <title>%3</title>
        <polygon fill="white" stroke="transparent" points="-4,4 -4,-158 489.58,-158 489.58,4 -4,4"/>
        <!-- 0 -->
        <g id="node1" class="node">
            <title>0</title>
            <polygon fill="none" stroke="#000000" points="92,-154 0,-154 0,-107 92,-107 92,-154"/>
            <text text-anchor="start" x="42.5" y="-142.2" font-family="Times,serif" font-size="11.00" fill="#707070">0
            </text>
            <text text-anchor="start" x="8" y="-128.8" font-family="Times,serif" font-size="14.00">variable</text>
            <text text-anchor="start" x="71" y="-128.8" font-family="Times,serif" font-weight="bold" font-size="14.00">
                w
            </text>
            <text text-anchor="start" x="24.5" y="-114.8" font-family="Times,serif" font-size="14.00">scalar</text>
        </g>
        <!-- 3 -->
        <g id="node2" class="node">
            <title>3</title>
            <ellipse fill="none" stroke="#000000" cx="172.5" cy="-98.5" rx="41.94" ry="33.47"/>
            <text text-anchor="start" x="169" y="-110.2" font-family="Times,serif" font-size="11.00" fill="#707070">3
            </text>
            <text text-anchor="start" x="156.5" y="-96.8" font-family="Times,serif" font-weight="bold"
                  font-size="14.00">Mul
            </text>
            <text text-anchor="start" x="151" y="-82.8" font-family="Times,serif" font-size="14.00">scalar</text>
        </g>
        <!-- 0&#45;&gt;3 -->
        <g id="edge1" class="edge">
            <title>0&#45;&gt;3</title>
            <path fill="none" stroke="black" d="M92.3,-118.86C102.21,-116.31 112.73,-113.6 122.77,-111.03"/>
            <polygon fill="black" stroke="black" points="123.79,-114.38 132.6,-108.5 122.04,-107.6 123.79,-114.38"/>
        </g>
        <!-- 4 -->
        <g id="node4" class="node">
            <title>4</title>
            <ellipse fill="none" stroke="#000000" cx="294.72" cy="-60.5" rx="41.94" ry="33.47"/>
            <text text-anchor="start" x="291.22" y="-72.2" font-family="Times,serif" font-size="11.00" fill="#707070">
                4
            </text>
            <text text-anchor="start" x="279.22" y="-58.8" font-family="Times,serif" font-weight="bold"
                  font-size="14.00">Add
            </text>
            <text text-anchor="start" x="273.22" y="-44.8" font-family="Times,serif" font-size="14.00">scalar</text>
        </g>
        <!-- 3&#45;&gt;4 -->
        <g id="edge3" class="edge">
            <title>3&#45;&gt;4</title>
            <path fill="none" stroke="black" d="M211.54,-86.48C222.39,-83.05 234.36,-79.26 245.73,-75.67"/>
            <polygon fill="black" stroke="black" points="247.04,-78.93 255.52,-72.58 244.93,-72.25 247.04,-78.93"/>
        </g>
        <!-- 2 -->
        <g id="node3" class="node">
            <title>2</title>
            <polygon fill="none" stroke="#000000" points="90,-89 2,-89 2,-42 90,-42 90,-89"/>
            <text text-anchor="start" x="42.5" y="-77.2" font-family="Times,serif" font-size="11.00" fill="#707070">2
            </text>
            <text text-anchor="start" x="10" y="-63.8" font-family="Times,serif" font-size="14.00">variable</text>
            <text text-anchor="start" x="73" y="-63.8" font-family="Times,serif" font-weight="bold" font-size="14.00">
                x
            </text>
            <text text-anchor="start" x="24.5" y="-49.8" font-family="Times,serif" font-size="14.00">scalar</text>
        </g>
        <!-- 2&#45;&gt;3 -->
        <g id="edge2" class="edge">
            <title>2&#45;&gt;3</title>
            <path fill="none" stroke="black" d="M90.19,-76.95C100.73,-79.74 112.08,-82.75 122.85,-85.61"/>
            <polygon fill="black" stroke="black" points="121.98,-89 132.55,-88.18 123.78,-82.23 121.98,-89"/>
        </g>
        <!-- 5 -->
        <g id="node6" class="node">
            <title>5</title>
            <ellipse fill="none" stroke="#000000" cx="429.01" cy="-60.5" rx="56.64" ry="33.47"/>
            <text text-anchor="start" x="425.51" y="-72.2" font-family="Times,serif" font-size="11.00" fill="#707070">
                5
            </text>
            <text text-anchor="start" x="397.01" y="-58.8" font-family="Times,serif" font-weight="bold"
                  font-size="14.00">Sigmoid
            </text>
            <text text-anchor="start" x="407.51" y="-44.8" font-family="Times,serif" font-size="14.00">scalar</text>
        </g>
        <!-- 4&#45;&gt;5 -->
        <g id="edge5" class="edge">
            <title>4&#45;&gt;5</title>
            <path fill="none" stroke="black" d="M336.49,-60.5C344.57,-60.5 353.24,-60.5 361.9,-60.5"/>
            <polygon fill="black" stroke="black" points="362.05,-64 372.05,-60.5 362.05,-57 362.05,-64"/>
        </g>
        <!-- 1 -->
        <g id="node5" class="node">
            <title>1</title>
            <polygon fill="none" stroke="#000000" points="217,-47 128,-47 128,0 217,0 217,-47"/>
            <text text-anchor="start" x="169" y="-35.2" font-family="Times,serif" font-size="11.00" fill="#707070">1
            </text>
            <text text-anchor="start" x="136" y="-21.8" font-family="Times,serif" font-size="14.00">variable</text>
            <text text-anchor="start" x="199" y="-21.8" font-family="Times,serif" font-weight="bold" font-size="14.00">
                b
            </text>
            <text text-anchor="start" x="151" y="-7.8" font-family="Times,serif" font-size="14.00">scalar</text>
        </g>
        <!-- 1&#45;&gt;4 -->
        <g id="edge4" class="edge">
            <title>1&#45;&gt;4</title>
            <path fill="none" stroke="black" d="M217.24,-36.96C226.51,-39.81 236.34,-42.84 245.75,-45.74"/>
            <polygon fill="black" stroke="black" points="244.79,-49.1 255.38,-48.7 246.85,-42.41 244.79,-49.1"/>
        </g>
    </g>
</svg>
